<svg width="35" height="39" viewBox="0 0 35 39" fill="none" xmlns="http://www.w3.org/2000/svg">
<g id="24 / basic / settings">
<path id="icon" fill-rule="evenodd" clip-rule="evenodd" d="M27.2069 35.4749L30.4403 32.2415L29.3015 28.1044L29.7976 26.9195L33.5416 24.8069V20.2344L29.8082 18.113L29.3204 16.9302L30.4735 12.791L27.2379 9.56L23.1004 10.6984L21.9182 10.2028L19.8053 6.45837H15.2329L13.1114 10.1918L11.9289 10.6795L7.79037 9.52497L4.55975 12.7556L5.69839 16.8937L5.20269 18.076L1.45831 20.1888V24.7599L5.18835 26.8861L5.67657 28.0699L4.52368 32.2084L7.75552 35.4403L11.8937 34.3016L13.076 34.7974L15.1889 38.5402H19.7602L21.8848 34.8101L23.0684 34.322L27.2069 35.4749ZM27.4934 24.8707L26.2221 27.9072L27.1778 31.3792L26.3489 32.2081L22.8842 31.2429L19.8464 32.4958L18.0648 35.6236H16.8917L15.1249 32.4938L12.0918 31.222L8.61795 32.1779L7.79044 31.3504L8.7556 27.8857L7.50284 24.8482L4.37498 23.0652V21.892L7.50617 20.1251L8.77797 17.0919L7.82212 13.618L8.64791 12.7922L12.1125 13.7587L15.1514 12.5054L16.9302 9.37504H18.1022L19.869 12.5062L22.9022 13.778L26.3768 12.822L27.2064 13.6504L26.2414 17.1144L27.4946 20.1529L30.625 21.9317V23.1037L27.4934 24.8707ZM17.5 28.3334C14.2783 28.3334 11.6666 25.7217 11.6666 22.5C11.6666 19.2784 14.2783 16.6667 17.5 16.6667C20.7216 16.6667 23.3333 19.2784 23.3333 22.5C23.3333 25.7217 20.7216 28.3334 17.5 28.3334ZM20.4166 22.5C20.4166 24.1109 19.1108 25.4167 17.5 25.4167C15.8891 25.4167 14.5833 24.1109 14.5833 22.5C14.5833 20.8892 15.8891 19.5834 17.5 19.5834C19.1108 19.5834 20.4166 20.8892 20.4166 22.5Z" fill="white" fill-opacity="0.53"/>
</g>
</svg>
